<?xml version="1.0" encoding="utf-8"?>
<!-- Generator: Adobe Illustrator 23.0.2, SVG Export Plug-In . SVG Version: 6.00 Build 0)  -->
<svg version="1.1" id="Layer_1" xmlns="http://www.w3.org/2000/svg" xmlns:xlink="http://www.w3.org/1999/xlink" x="0px" y="0px"
	 viewBox="0 0 140 47" style="enable-background:new 0 0 140 47;" xml:space="preserve">
<style type="text/css">
	.st0{fill:#FFFFFF;}
</style>
<g>
	<g id="Layer_1-2">
		<path class="st0" d="M132.69,46.23H7.31c-1.67,0.01-3.28-0.66-4.45-1.86C1.66,43.2,0.99,41.59,1,39.92V7.08
			C1,3.6,3.82,0.77,7.31,0.77l0,0H132.7c3.48,0,6.31,2.82,6.31,6.31v32.84C138.98,43.39,136.17,46.21,132.69,46.23z M7.31,1.23
			c-3.23,0-5.85,2.61-5.85,5.84v0.01v32.84c0,3.23,2.61,5.85,5.84,5.85h0.01H132.7c3.23,0,5.85-2.62,5.85-5.85V7.08
			c0-3.23-2.61-5.85-5.84-5.85h-0.01H7.31z M108.26,30.86c-0.54,0-1.08-0.11-1.58-0.32c-0.48-0.21-0.89-0.55-1.2-0.97h-0.09
			c0.06,0.49,0.09,0.98,0.09,1.47v3.64h-1.33V21.84h1.08l0.19,1.22h0.06c0.3-0.45,0.72-0.81,1.2-1.04c0.5-0.23,1.04-0.34,1.58-0.32
			c1.04-0.06,2.05,0.39,2.71,1.2c0.69,0.99,1.03,2.19,0.95,3.4c0.08,1.21-0.27,2.4-0.97,3.39c-0.66,0.79-1.66,1.23-2.69,1.18
			C108.26,30.87,108.26,30.86,108.26,30.86z M108.06,22.81c-0.73-0.07-1.46,0.2-1.97,0.73c-0.47,0.71-0.69,1.55-0.63,2.39v0.29
			c-0.09,0.94,0.14,1.87,0.63,2.67c0.48,0.59,1.22,0.91,1.99,0.86c0.72,0.02,1.4-0.33,1.81-0.92c0.47-0.77,0.7-1.66,0.66-2.56
			c0.05-0.89-0.18-1.77-0.66-2.53c-0.41-0.6-1.1-0.94-1.83-0.9C108.06,22.84,108.06,22.81,108.06,22.81z M115.04,30.7h-1.33V18.11
			h1.33V30.7z M122.77,30.7l-0.27-1.27h-0.06c-0.34,0.47-0.79,0.86-1.31,1.13c-0.52,0.22-1.08,0.32-1.65,0.3
			c-0.75,0.05-1.5-0.2-2.07-0.69c-0.51-0.5-0.79-1.2-0.75-1.92c0-1.79,1.42-2.76,4.29-2.8l1.52-0.05v-0.54
			c0.04-0.55-0.12-1.1-0.46-1.54c-0.38-0.37-0.9-0.55-1.42-0.5c-0.88,0.04-1.74,0.27-2.51,0.69l-0.41-1.01
			c0.93-0.5,1.96-0.76,3.01-0.77c0.84-0.07,1.68,0.17,2.35,0.69c0.57,0.61,0.86,1.43,0.78,2.26v6.06L122.77,30.7L122.77,30.7z
			 M119.74,29.75c0.72,0.04,1.43-0.21,1.97-0.69c0.5-0.51,0.77-1.2,0.73-1.92v-0.79l-1.33,0.04c-0.8-0.02-1.59,0.15-2.3,0.5
			c-0.47,0.3-0.73,0.83-0.69,1.38c-0.03,0.42,0.14,0.83,0.46,1.11c0.34,0.26,0.77,0.39,1.19,0.36L119.74,29.75z M124.51,21.84h1.44
			l2.01,5.06c0.33,0.82,0.59,1.66,0.79,2.51h0.06c0.07-0.27,0.23-0.75,0.43-1.38s0.95-2.71,2.19-6.15h1.45l-3.79,10.08
			c-0.26,0.81-0.72,1.54-1.33,2.13c-0.53,0.42-1.18,0.64-1.86,0.63c-0.42,0-0.84-0.04-1.26-0.13v-1.1c0.33,0.06,0.66,0.09,0.99,0.09
			c0.93-0.02,1.74-0.66,1.97-1.56l0.5-1.27L124.51,21.84z M83.37,22.65c0.81,0.58,1.3,1.51,1.31,2.5c0,1.38-0.77,2.01-1.56,2.62
			c-0.29,0.21-0.48,0.54-0.52,0.9c0.02,0.33,0.21,0.63,0.5,0.79L83.8,30c0.81,0.69,1.56,1.31,1.56,2.6c0,1.74-1.7,3.51-4.88,3.51
			c-2.69,0-3.98-1.29-3.98-2.65c0.04-0.95,0.58-1.81,1.42-2.26c1.1-0.55,2.32-0.85,3.55-0.86c-0.34-0.33-0.55-0.78-0.57-1.26
			c0.01-0.24,0.07-0.48,0.18-0.69c-0.21,0-0.41,0.05-0.59,0.05c-1.62,0.08-2.99-1.17-3.07-2.78c0-0.04,0-0.09,0-0.13
			c0.02-0.96,0.45-1.87,1.18-2.48c0.95-0.73,2.13-1.09,3.32-1.02h3.82l-1.18,0.69L83.37,22.65z M82.06,30.88
			c-0.14-0.01-0.29-0.01-0.43,0c-0.66,0.01-1.31,0.11-1.95,0.29c-0.9,0.21-1.55,0.98-1.6,1.9c0,1.31,1.29,2.26,3.26,2.26
			c1.78,0,2.76-0.86,2.76-2.01c0-0.92-0.61-1.42-2.01-2.41L82.06,30.88z M82.61,27.35c0.33-0.38,0.49-0.88,0.45-1.38
			c0-1.33-0.79-3.41-2.33-3.41c-0.5,0.01-0.96,0.23-1.29,0.61c-0.29,0.4-0.43,0.89-0.41,1.38c0,1.24,0.72,3.3,2.33,3.3
			c0.46-0.02,0.9-0.2,1.24-0.52v0.02H82.61z M71.74,30.58c-2.42,0.07-4.43-1.83-4.5-4.25c0-0.04,0-0.07,0-0.11
			c0.05-2.54,2.15-4.55,4.69-4.5c0.05,0,0.1,0,0.14,0.01c2.39-0.05,4.38,1.84,4.43,4.24c0,0.04,0,0.09,0,0.13
			c-0.02,2.5-2.06,4.51-4.56,4.5c-0.05,0-0.1,0-0.15,0L71.74,30.58z M74.04,29.06c0.42-0.61,0.61-1.34,0.57-2.07
			c0-1.63-0.77-4.75-3.07-4.75c-0.62,0.01-1.21,0.23-1.68,0.63c-0.61,0.59-0.92,1.42-0.86,2.26c0,1.83,0.9,4.83,3.14,4.83
			C72.89,29.99,73.59,29.65,74.04,29.06z M61.72,30.58c-2.41,0.08-4.44-1.81-4.52-4.23c0-0.04,0-0.09,0-0.13
			c0.05-2.54,2.15-4.55,4.69-4.5c0.03,0,0.07,0,0.1,0c2.39-0.05,4.38,1.84,4.43,4.24c0,0.04,0,0.09,0,0.13
			c-0.01,2.49-2.03,4.5-4.52,4.5C61.84,30.59,61.78,30.59,61.72,30.58z M64.01,29.06c0.42-0.61,0.61-1.34,0.57-2.07
			c0-1.63-0.77-4.75-3.08-4.75c-0.61,0.01-1.2,0.24-1.67,0.63c-0.63,0.59-0.95,1.44-0.87,2.3c0,1.83,0.9,4.83,3.14,4.83
			C62.85,30.03,63.57,29.67,64.01,29.06z M55.79,30.29l-2.67,0.61c-1.01,0.18-2.04,0.29-3.07,0.32c-5.13,0-7.1-3.77-7.1-6.73
			c0-3.62,2.76-6.96,7.53-6.96c0.96,0.01,1.92,0.14,2.85,0.39c0.89,0.22,1.72,0.62,2.46,1.15l-1.54,1.47l-0.69,0.16l0.48-0.75
			c-1.02-1.12-2.47-1.76-3.98-1.75c-2.93,0-5.15,2.24-5.15,5.52c0,3.51,2.53,6.78,6.58,6.78c0.82,0.02,1.63-0.14,2.37-0.48v-3.03
			l-2.81,0.16l1.5-0.79h3.95l-0.48,0.48c-0.1,0.06-0.17,0.17-0.18,0.29c0,0.16-0.05,0.69-0.05,0.9l-0.04,2.24L55.79,30.29z
			 M89.28,29.75c-0.61-0.04-0.75-0.16-0.75-0.9V18.22c0.07-0.66,0.27-0.77,0.83-1.11H86.7l-1.38,0.69h1.43v11.47
			c0,0.37-0.07,0.43-0.5,0.99h3.3l0.69-0.4c-0.29-0.05-0.61-0.07-0.92-0.12L89.28,29.75z M96.87,29.93c-0.2,0.12-0.4,0.24-0.61,0.34
			c-0.56,0.25-1.17,0.37-1.79,0.37c-0.88,0.03-1.74-0.22-2.46-0.72c-1.21-0.92-1.91-2.36-1.88-3.88c-0.05-2.31,1.79-4.22,4.1-4.27
			c0.04,0,0.08,0,0.13,0c0.67-0.01,1.33,0.17,1.9,0.52c0.64,0.43,1.1,1.08,1.29,1.83l-4.34,1.77L91.78,26
			c0.46,2.35,2.07,3.71,3.8,3.71c0.8-0.04,1.57-0.27,2.26-0.69L96.87,29.93L96.87,29.93z M95.13,24.41c0.36-0.14,0.55-0.25,0.55-0.5
			c-0.13-0.91-0.91-1.59-1.84-1.58c-0.75,0-2.13,0.57-2.13,2.57c0,0.32,0.05,0.69,0.05,0.97C91.76,25.88,95.13,24.41,95.13,24.41z
			 M98.66,21.86v1.22H98.5v-1.22h-0.41v-0.14h0.95v0.14H98.66z M100.33,23.08v-1.22l0,0l-0.38,1.22h-0.12l-0.38-1.22l0,0v1.22h-0.14
			V21.7h0.23l0.34,1.09l0,0l0.34-1.09h0.23v1.38H100.33z M46.65,13.88h-0.92c-0.05-0.37-0.14-0.73-0.27-1.08h-1.33
			c-0.13,0.35-0.22,0.71-0.28,1.08h-0.86c0-0.07,0.23-0.69,0.69-1.86c0.28-0.62,0.51-1.26,0.69-1.92h1.06
			c0.16,0.64,0.36,1.27,0.61,1.88C46.29,12.61,46.49,13.24,46.65,13.88z M45.32,12.26c-0.19-0.52-0.36-1.06-0.5-1.6h-0.04
			c0,0.06-0.19,0.61-0.52,1.6H45.32z M50.38,13.88h-0.69c-0.22-0.44-0.49-0.85-0.79-1.24c-0.4-0.48-0.74-1.03-0.98-1.61h-0.05
			c0.04,0.38,0.07,0.77,0.07,1.15c0,0.48,0,1.06,0.05,1.74H47.3c0-0.59,0.05-1.24,0.05-1.97c0-0.72,0-1.31-0.05-1.78h0.86
			c0.18,0.43,0.41,0.84,0.69,1.21c0.35,0.48,0.64,1,0.88,1.54h0.05c-0.04-0.38-0.07-0.77-0.07-1.15c0-0.52,0-1.06-0.05-1.6h0.69
			c0,0.47-0.04,1.08-0.04,1.78C50.31,12.66,50.36,13.32,50.38,13.88z M54.56,11.88c0,0.52-0.18,1.02-0.52,1.42
			c-0.37,0.41-0.91,0.64-1.47,0.61c-0.3,0-0.69,0-1.18-0.04c0-0.59,0.05-1.24,0.05-1.97s0-1.29-0.05-1.79h1.18
			c0.55-0.05,1.1,0.14,1.51,0.52C54.4,10.97,54.57,11.41,54.56,11.88z M53.77,12.01c-0.01-0.32-0.12-0.64-0.33-0.88
			c-0.26-0.27-0.62-0.41-0.99-0.39c-0.11-0.01-0.23-0.01-0.34,0c0,0.39,0,0.79,0,1.2s0,0.92,0,1.38c0.13,0.03,0.25,0.04,0.38,0.04
			c0.35,0.02,0.69-0.12,0.93-0.38c0.2-0.28,0.3-0.61,0.29-0.95L53.77,12.01z M58.43,13.88h-0.85c-0.11-0.44-0.29-0.87-0.52-1.26
			c-0.14-0.17-0.36-0.27-0.59-0.25h-0.32c0,0.5,0,0.99,0,1.49h-0.81c0-0.59,0.05-1.24,0.05-1.97s0-1.29-0.05-1.79h1.38
			c0.88,0,1.34,0.3,1.34,0.9c0.01,0.47-0.3,0.88-0.75,0.99v0.05c0.23,0.07,0.42,0.23,0.52,0.45C57.97,12.8,58.18,13.25,58.43,13.88z
			 M57.35,11.26c0-0.39-0.25-0.57-0.75-0.57c-0.16,0-0.32,0.02-0.48,0.04c0,0.3,0,0.69,0,1.18h0.27
			C57.05,11.9,57.35,11.69,57.35,11.26z M62.56,11.95c0.02,0.54-0.17,1.07-0.54,1.47c-0.34,0.38-0.82,0.59-1.33,0.59
			c-0.48,0.01-0.94-0.19-1.27-0.54c-0.35-0.37-0.53-0.87-0.52-1.38c-0.02-0.54,0.17-1.07,0.54-1.47c0.34-0.38,0.83-0.59,1.34-0.59
			c0.48-0.01,0.94,0.19,1.26,0.55C62.41,10.94,62.59,11.45,62.56,11.95L62.56,11.95z M61.78,12.04c0.01-0.35-0.1-0.69-0.32-0.97
			c-0.18-0.24-0.46-0.38-0.77-0.39c-0.29,0.01-0.56,0.15-0.72,0.39c-0.22,0.27-0.33,0.61-0.32,0.95c-0.01,0.35,0.1,0.7,0.32,0.97
			c0.18,0.24,0.46,0.39,0.77,0.39c0.29-0.01,0.56-0.15,0.72-0.39c0.21-0.27,0.32-0.61,0.3-0.95H61.78z M64.21,13.88h-0.83
			c0-0.59,0.05-1.24,0.05-1.97s0-1.31-0.05-1.79h0.81c0,0.48-0.04,1.09-0.04,1.79C64.15,12.62,64.17,13.32,64.21,13.88z
			 M68.39,11.88c0,0.52-0.18,1.02-0.52,1.42c-0.37,0.42-0.91,0.64-1.47,0.61c-0.29,0-0.69,0-1.17-0.04c0-0.59,0.04-1.24,0.04-1.97
			s0-1.29-0.04-1.79h1.17c0.56-0.05,1.11,0.14,1.52,0.52C68.23,10.97,68.4,11.42,68.39,11.88z M67.61,12.01
			c-0.01-0.32-0.12-0.63-0.32-0.88c-0.26-0.27-0.62-0.41-0.99-0.39c-0.11-0.01-0.23-0.01-0.34,0c0,0.39,0,0.79,0,1.2s0,0.92,0,1.38
			c0.13,0.03,0.26,0.04,0.39,0.04c0.35,0.02,0.69-0.12,0.92-0.38c0.21-0.28,0.32-0.61,0.34-0.95V12.01z M73.95,13.88h-0.92
			c-0.05-0.37-0.14-0.73-0.27-1.08h-1.34c-0.13,0.35-0.22,0.71-0.27,1.08H70.3c0.2-0.63,0.43-1.25,0.69-1.86
			c0.28-0.62,0.51-1.26,0.69-1.92h1.08c0.16,0.64,0.37,1.26,0.61,1.88s0.45,1.25,0.61,1.9H73.95z M72.57,12.26
			c-0.19-0.52-0.36-1.06-0.5-1.6h-0.01c0,0.06-0.18,0.61-0.52,1.6H72.57z M77.32,11.12c0.02,0.41-0.18,0.8-0.52,1.02
			c-0.38,0.24-0.83,0.37-1.28,0.36h-0.2c0,0.36,0,0.83,0,1.42h-0.81c0-0.57,0.05-1.22,0.05-1.97s0-1.29-0.05-1.79h1.43
			c0.34-0.01,0.68,0.08,0.97,0.26c0.28,0.13,0.45,0.42,0.43,0.72L77.32,11.12z M76.58,11.28c0-0.41-0.27-0.61-0.81-0.61
			c-0.14,0-0.29,0.02-0.43,0.04c0,0.37,0,0.77,0,1.24h0.19C76.21,11.96,76.58,11.74,76.58,11.28z M80.78,11.12
			c0.02,0.41-0.18,0.8-0.52,1.02c-0.38,0.25-0.83,0.37-1.29,0.36h-0.21c0,0.36,0,0.83,0,1.42H78c0-0.57,0.04-1.22,0.04-1.97
			s0-1.29-0.04-1.79h1.42c0.33,0,0.65,0.09,0.92,0.26c0.28,0.13,0.45,0.42,0.43,0.72v-0.02H80.78z M80.03,11.28
			c0-0.41-0.27-0.61-0.81-0.61c-0.14,0-0.29,0.02-0.43,0.04c0,0.37,0,0.77,0,1.24h0.18C79.66,11.96,80.03,11.74,80.03,11.28z
			 M86.46,11.97c0.02,0.54-0.18,1.07-0.55,1.47c-0.34,0.38-0.82,0.59-1.33,0.59c-0.48,0.01-0.94-0.19-1.27-0.54
			c-0.35-0.37-0.53-0.87-0.52-1.38c-0.02-0.54,0.18-1.07,0.55-1.47c0.34-0.38,0.82-0.59,1.33-0.59c0.48-0.01,0.94,0.19,1.26,0.55
			C86.29,10.97,86.48,11.47,86.46,11.97L86.46,11.97z M85.64,12.06c0.01-0.35-0.1-0.69-0.32-0.97c-0.18-0.24-0.47-0.39-0.77-0.39
			c-0.28,0.02-0.53,0.16-0.69,0.39c-0.21,0.27-0.32,0.6-0.3,0.95c-0.01,0.35,0.1,0.7,0.32,0.97c0.18,0.24,0.46,0.39,0.77,0.39
			c0.28-0.02,0.53-0.16,0.69-0.39C85.55,12.74,85.65,12.41,85.64,12.06L85.64,12.06z M90.36,13.88h-0.69
			c-0.22-0.44-0.49-0.85-0.79-1.24c-0.4-0.49-0.72-1.04-0.95-1.63h-0.04c0.04,0.43,0.06,0.81,0.06,1.15c0,0.48,0,1.06,0.05,1.74
			h-0.69c0-0.59,0.05-1.24,0.05-1.97s0-1.31-0.05-1.78h0.86c0.17,0.43,0.41,0.84,0.69,1.21c0.34,0.48,0.64,1,0.88,1.54h0.05
			c-0.04-0.38-0.07-0.77-0.07-1.15c0-0.52,0-1.06-0.04-1.6h0.69c0,0.47-0.04,1.08-0.04,1.78C90.33,12.64,90.34,13.32,90.36,13.88z
			 M37.02,24.23c-0.53-0.28-4.97-2.88-5.84-3.39l-4.05,4.08l4.04,4l5.81-3.35c0.7-0.44,0.63-0.99,0.04-1.3L37.02,24.23z
			 M24.85,17.22c0,0-11.3-6.53-11.96-6.9c-0.19-0.12-0.42-0.19-0.65-0.18L26.9,24.66l3.99-3.95L24.85,17.22z M11.9,10.23
			c-0.24,0.17-0.37,0.45-0.35,0.74V39.1c-0.01,0.21,0.07,0.42,0.23,0.56L26.7,24.92L11.9,10.23z M26.88,25.14L12.12,39.77
			c0.17-0.01,0.34-0.06,0.48-0.15l12.23-7.07l6.03-3.45L26.88,25.14z"/>
	</g>
</g>
</svg>
